<svg id="icon_reservation_26" xmlns="http://www.w3.org/2000/svg" width="26" height="26" viewBox="0 0 26 26">
  <rect id="사각형_1081" data-name="사각형 1081" width="26" height="26" fill="none"/>
  <g id="그룹_955" data-name="그룹 955" transform="translate(-172.5 -775.354)">
    <path id="패스_9994" data-name="패스 9994" d="M192.654,777.905h-2.362v-.739a.85.85,0,1,0-1.7,0v.739H179.85v-.739a.85.85,0,1,0-1.7,0v.739h-2.363a2.45,2.45,0,0,0-2.456,2.439v15.094a2.45,2.45,0,0,0,2.456,2.439h6.185l-.7-.687a3.578,3.578,0,0,1-.706-1.012h-4.784a.749.749,0,0,1-.756-.74V784.371h18.38v5.26l.717-.71a3.6,3.6,0,0,1,.983-.677v-7.9A2.451,2.451,0,0,0,192.654,777.905Zm-17.623,4.767v-2.328a.75.75,0,0,1,.756-.74h2.363v.74a.85.85,0,0,0,1.7,0v-.74h8.742v.74a.85.85,0,0,0,1.7,0v-.74h2.362a.75.75,0,0,1,.757.74v2.328Z" fill="#111"/>
    <path id="빼기_8" data-name="빼기 8" d="M3994.616-8791.441a.992.992,0,0,1-.707-.292l-4.82-4.765a.963.963,0,0,1-.289-.689.947.947,0,0,1,.289-.69,1,1,0,0,1,.707-.278,1.013,1.013,0,0,1,.709.278l4.111,4.066,7.325-7.245a.99.99,0,0,1,.707-.29.991.991,0,0,1,1,.981.962.962,0,0,1-.289.688l-8.034,7.943A.985.985,0,0,1,3994.616-8791.441Z" transform="translate(-3805.978 9591.833)" fill="#111"/>
  </g>
</svg>
