<svg id="icon_mypage_26" xmlns="http://www.w3.org/2000/svg" width="26" height="26" viewBox="0 0 26 26">
  <rect id="사각형_847" data-name="사각형 847" width="26" height="26" fill="none"/>
  <g id="그룹_633" data-name="그룹 633" transform="translate(1.891 0.868)">
    <path id="빼기_7" data-name="빼기 7" d="M3660.934-9861.82a7.232,7.232,0,0,1-7.223-7.226,7.231,7.231,0,0,1,7.223-7.224,7.231,7.231,0,0,1,7.223,7.224A7.232,7.232,0,0,1,3660.934-9861.82Zm0-12.711a5.492,5.492,0,0,0-5.486,5.485,5.493,5.493,0,0,0,5.486,5.488,5.493,5.493,0,0,0,5.486-5.488A5.492,5.492,0,0,0,3660.934-9874.531Z" transform="translate(-3649.604 9876.568)" fill="#111"/>
    <path id="빼기_6" data-name="빼기 6" d="M3674.9-9867.683h-20.323a.858.858,0,0,1-.647-.293.871.871,0,0,1-.216-.676c.377-3.294,1.265-5.69,2.714-7.325a.864.864,0,0,1,.649-.293.864.864,0,0,1,.575.221.871.871,0,0,1,.293.6.86.86,0,0,1-.218.627,10.046,10.046,0,0,0-2.1,5.052l-.062.35h18.34l-.06-.35a10.074,10.074,0,0,0-2.1-5.052.857.857,0,0,1-.217-.627.862.862,0,0,1,.291-.6.865.865,0,0,1,.575-.221.864.864,0,0,1,.649.293c1.45,1.636,2.338,4.031,2.714,7.325a.864.864,0,0,1-.216.676A.858.858,0,0,1,3674.9-9867.683Z" transform="translate(-3653.41 9891.21)" fill="#111"/>
  </g>
</svg>
